# xmcd
#
# Track frame offsets:
#	150
#	21667
#	38982
#	54875
#	69412
#	85912
#	97482
#	117112
#	133630
#	156735
#	174767
#	189717
#	206557
#	223340
#	236602
#	257705
#
# Disc length: 3718 seconds
#
# Revision: 0
# Processed by: cddbd v1.5.2PL0 Copyright (c) Steve Scherf et al.
# Submitted via: EasyCDDAExtractor 16.0.8.1
#
DISCID=f10e8410
DTITLE=Dimension Latina - 25 Años De Historia Vol. 6
DYEAR=2000
DGENRE=Salsa
TTITLE0=Con Un Amor Se Borra Otro Amor
TTITLE1=Suena El Cuero
TTITLE2=Sin Rencor
TTITLE3=Cuando Me Faltas Tu
TTITLE4=Huele A Quemao
TTITLE5=Potpurrit De Danzones
TTITLE6=De Ti Enamorado
TTITLE7=Por El Camino
TTITLE8=Mira Pa' Ahi
TTITLE9=Mapeye N. 2
TTITLE10=Defiendete Tu
TTITLE11=Malditos Celos
TTITLE12=La Vela
TTITLE13=No Me Mires Asi
TTITLE14=Sandunguera
TTITLE15=Para Tu Altar
EXTD=
EXTT0=
EXTT1=
EXTT2=
EXTT3=
EXTT4=
EXTT5=
EXTT6=
EXTT7=
EXTT8=
EXTT9=
EXTT10=
EXTT11=
EXTT12=
EXTT13=
EXTT14=
EXTT15=
PLAYORDER=
